<svg width="24" height="24" viewBox="0 0 24 24" fill="none" xmlns="http://www.w3.org/2000/svg">
<mask id="mask0_1422_550" style="mask-type:alpha" maskUnits="userSpaceOnUse" x="0" y="0" width="24" height="24">
<rect width="24" height="24" fill="#D9D9D9"/>
</mask>
<g mask="url(#mask0_1422_550)">
<path d="M8.87309 17.1274C8.7282 16.9825 8.65576 16.8069 8.65576 16.6005C8.65576 16.3941 8.7282 16.2184 8.87309 16.0736L12.9462 12.0005L8.87309 7.92737C8.7282 7.78251 8.65576 7.60687 8.65576 7.40047C8.65576 7.19407 8.7282 7.01844 8.87309 6.87357C9.01795 6.72869 9.19359 6.65625 9.39999 6.65625C9.60639 6.65625 9.78202 6.72869 9.92689 6.87357L14.4211 11.3678C14.5147 11.4614 14.5807 11.5601 14.6192 11.6639C14.6577 11.7678 14.6769 11.88 14.6769 12.0005C14.6769 12.121 14.6577 12.2332 14.6192 12.337C14.5807 12.4408 14.5147 12.5396 14.4211 12.6331L9.92689 17.1274C9.78202 17.2723 9.60639 17.3447 9.39999 17.3447C9.19359 17.3447 9.01795 17.2723 8.87309 17.1274Z" fill="white"/>
</g>
</svg>
